<?xml version="1.0" encoding="utf-8"?>
<!-- Generator: Adobe Illustrator 19.0.0, SVG Export Plug-In . SVG Version: 6.00 Build 0)  -->
<svg version="1.1" id="Layer_1" xmlns="http://www.w3.org/2000/svg" xmlns:xlink="http://www.w3.org/1999/xlink" x="0px" y="0px"
	 viewBox="-305 179 412 412" style="enable-background:new -305 179 412 412;" xml:space="preserve">
<style type="text/css">
	.st0{fill:#FFFFFF;}
</style>
<g>
	<g>
		<g>
			<path class="st0" d="M29,319h-64c-4.4,0-8,3.6-8,8s3.6,8,8,8h64c13.2,0,24,10.8,24,24v192c0,13.2-10.8,24-24,24h-256
				c-13.2,0-24-10.8-24-24V359c0-13.2,10.8-24,24-24h72c4.4,0,8-3.6,8-8s-3.6-8-8-8h-72c-22,0-40,18-40,40v192c0,22,18,40,40,40H29
				c22,0,40-18,40-40V359C69,337,51,319,29,319z"/>
			<path class="st0" d="M-99,207c4.4,0,8-3.6,8-8v-12c0-4.4-3.6-8-8-8s-8,3.6-8,8v12C-107,203.4-103.4,207-99,207z"/>
			<path class="st0" d="M-175.4,390.6c-3.2,3.2-3.2,8,0,11.2l70.8,70.8c1.6,1.6,3.6,2.4,5.6,2.4s4-0.8,5.6-2.4l70.8-70.8
				c3.2-3.2,3.2-8,0-11.2s-8-3.2-11.2,0L-91,447.8V235c0-4.4-3.6-8-8-8s-8,3.6-8,8v212.8l-57.2-57.2
				C-167.4,387.4-172.2,387.4-175.4,390.6z"/>
		</g>
	</g>
</g>
</svg>
