<?xml version="1.0" encoding="utf-8"?>
<!-- Generator: Adobe Illustrator 19.0.0, SVG Export Plug-In . SVG Version: 6.00 Build 0)  -->
<svg version="1.1" id="Capa_1" xmlns="http://www.w3.org/2000/svg" xmlns:xlink="http://www.w3.org/1999/xlink" x="0px" y="0px"
	 viewBox="-479 352 65 65" style="enable-background:new -479 352 65 65;" xml:space="preserve">
<style type="text/css">
	.st0{fill:#F7FF17;}
</style>
<g>
	<g>
		<path class="st0" d="M-446.5,352c-17.9,0-32.5,14.6-32.5,32.5s14.6,32.5,32.5,32.5s32.5-14.6,32.5-32.5S-428.6,352-446.5,352z
			 M-446.5,413c-15.7,0-28.5-12.8-28.5-28.5s12.8-28.5,28.5-28.5s28.5,12.8,28.5,28.5S-430.8,413-446.5,413z"/>
		<circle class="st0" cx="-446" cy="371.5" r="3.3"/>
		<path class="st0" d="M-446.9,380.3c-1.1,0-2,0.9-2,2v17c0,1.1,0.9,2,2,2s2-0.9,2-2v-17C-444.9,381.2-445.8,380.3-446.9,380.3z"/>
	</g>
</g>
</svg>
