<?xml version="1.0" encoding="utf-8"?>
<!-- Generator: Adobe Illustrator 19.0.0, SVG Export Plug-In . SVG Version: 6.00 Build 0)  -->
<svg version="1.1" id="Layer_1" xmlns="http://www.w3.org/2000/svg" xmlns:xlink="http://www.w3.org/1999/xlink" x="0px" y="0px"
	 viewBox="0 0 640 480" style="enable-background:new 0 0 640 480;" xml:space="preserve">
<style type="text/css">
	.st0{fill:#FD932D;}
	.st1{fill:#FC6029;}
	.st2{fill:#FD802C;}
	.st3{fill:#FC4125;}
	.st4{fill:#FC2C27;}
	.st5{fill:#8CC9FB;}
	.st6{fill:#6FA9D9;}
	.st7{fill:#81C0F4;}
	.st8{fill:#CEE2F3;}
	.st9{fill:#364B5D;}
</style>
<g id="XMLID_2_">
	<polygon id="XMLID_13_" class="st0" points="201.6,244.6 313,183.6 306.3,290.3 	"/>
	<polygon id="XMLID_12_" class="st1" points="147.5,202.8 201.6,244.6 313,183.6 	"/>
	<polygon id="XMLID_11_" class="st2" points="442.7,264.6 313,183.6 306.3,290.3 	"/>
	<polygon id="XMLID_10_" class="st3" points="438.7,298.6 331.2,292.7 332.1,285.4 442.7,264.6 	"/>
	<polygon id="XMLID_9_" class="st1" points="320,353.4 331.2,292.7 438.7,298.6 	"/>
	<polygon id="XMLID_8_" class="st3" points="236.7,392.9 331.2,292.7 316.8,379.7 	"/>
	<polygon id="XMLID_7_" class="st1" points="442.7,264.6 454,223.9 463.3,190.5 385,228.6 	"/>
	<g id="XMLID_1_">
		<g id="XMLID_16_">
			<polygon id="XMLID_18_" class="st4" points="492.5,211.6 454,223.9 463.3,190.5 			"/>
		</g>
		<g id="XMLID_17_">
		</g>
	</g>
	<polygon id="XMLID_5_" class="st3" points="383.7,136.9 418.7,212.2 385,228.6 343.2,202.5 	"/>
	<polygon id="XMLID_4_" class="st0" points="266.7,149.2 383.7,136.9 343.2,202.5 313,183.6 292.7,186 	"/>
	<polygon id="XMLID_3_" class="st1" points="245,87.1 383.7,136.9 266.7,149.2 	"/>
</g>
<g id="XMLID_19_">
	<polygon id="XMLID_36_" class="st5" points="841.9,209.3 953.2,148.3 946.5,255 	"/>
	<polygon id="XMLID_35_" class="st6" points="787.8,167.5 841.9,209.3 953.2,148.3 	"/>
	<polygon id="XMLID_34_" class="st7" points="1082.9,229.3 953.2,148.3 946.5,255 	"/>
	<polygon id="XMLID_33_" class="st8" points="1079,263.3 971.4,257.4 972.3,250.1 1082.9,229.3 	"/>
	<polygon id="XMLID_32_" class="st6" points="960.3,318.1 971.4,257.4 1079,263.3 	"/>
	<polygon id="XMLID_31_" class="st8" points="876.9,357.6 971.4,257.4 957,344.4 	"/>
	<polygon id="XMLID_30_" class="st6" points="1082.9,229.3 1094.2,188.6 1103.5,155.2 1025.3,193.3 	"/>
	<g id="XMLID_23_">
		<g id="XMLID_28_">
			<polygon id="XMLID_29_" class="st9" points="1132.7,176.3 1094.2,188.6 1103.5,155.2 			"/>
		</g>
		<g id="XMLID_27_">
		</g>
	</g>
	<polygon id="XMLID_22_" class="st8" points="1024,101.6 1058.9,176.9 1025.3,193.3 983.5,167.2 	"/>
	<polygon id="XMLID_21_" class="st5" points="906.9,113.9 1024,101.6 983.5,167.2 953.2,148.3 932.9,150.7 	"/>
	<polygon id="XMLID_20_" class="st6" points="885.3,51.8 1024,101.6 906.9,113.9 	"/>
</g>
</svg>
