<?xml version="1.0" encoding="utf-8"?>
<!-- Generator: Adobe Illustrator 19.0.0, SVG Export Plug-In . SVG Version: 6.00 Build 0)  -->
<svg version="1.1" id="Layer_1" xmlns="http://www.w3.org/2000/svg" xmlns:xlink="http://www.w3.org/1999/xlink" x="0px" y="0px"
	 viewBox="-1407 1057 640 480" style="enable-background:new -1407 1057 640 480;" xml:space="preserve">
<style type="text/css">
	.st0{fill:#FD932D;}
	.st1{fill:#FC6029;}
	.st2{fill:#FD802C;}
	.st3{fill:#FC4125;}
	.st4{fill:#FC2C27;}
	.st5{font-family:'MicrosoftTaiLe';}
	.st6{font-size:80px;}
	.st7{font-family:'Phosphate-Inline';}
</style>
<g id="XMLID_1_">
	<polygon id="XMLID_13_" class="st0" points="-1311.9,1288.6 -1266.1,1263.4 -1268.9,1307.4 	"/>
	<polygon id="XMLID_12_" class="st1" points="-1334.2,1271.3 -1311.9,1288.6 -1266.1,1263.4 	"/>
	<polygon id="XMLID_11_" class="st2" points="-1212.7,1296.8 -1266.1,1263.4 -1268.9,1307.4 	"/>
	<polygon id="XMLID_10_" class="st3" points="-1214.3,1310.8 -1258.6,1308.4 -1258.2,1305.4 -1212.7,1296.8 	"/>
	<polygon id="XMLID_9_" class="st1" points="-1263.2,1333.3 -1258.6,1308.4 -1214.3,1310.8 	"/>
	<polygon id="XMLID_8_" class="st3" points="-1297.5,1349.6 -1258.6,1308.4 -1264.5,1344.2 	"/>
	<polygon id="XMLID_7_" class="st1" points="-1212.7,1296.8 -1208,1280 -1204.2,1266.3 -1236.4,1282 	"/>
	<g id="XMLID_2_">
		<g id="XMLID_16_">
			<polygon id="XMLID_18_" class="st4" points="-1192.2,1275 -1208,1280 -1204.2,1266.3 			"/>
		</g>
		<g id="XMLID_17_">
		</g>
	</g>
	<polygon id="XMLID_5_" class="st3" points="-1237,1244.2 -1222.6,1275.2 -1236.4,1282 -1253.6,1271.2 	"/>
	<polygon id="XMLID_4_" class="st0" points="-1285.2,1249.3 -1237,1244.2 -1253.6,1271.2 -1266.1,1263.4 -1274.4,1264.4 	"/>
	<polygon id="XMLID_3_" class="st1" points="-1294.1,1223.7 -1237,1244.2 -1285.2,1249.3 	"/>
</g>
<text transform="matrix(1 0 0 1 -1214.3254 1359.1721)" class="st5 st6">Swift</text>
<text transform="matrix(1 0 0 1 -1042.5255 1359.1721)" class="st7 st6">Watch</text>
</svg>
