<?xml version="1.0" encoding="utf-8"?>
<!-- Generator: Adobe Illustrator 19.0.0, SVG Export Plug-In . SVG Version: 6.00 Build 0)  -->
<svg version="1.1" xmlns="http://www.w3.org/2000/svg" xmlns:xlink="http://www.w3.org/1999/xlink" x="0px" y="0px"
	 viewBox="0 0 750 500" style="enable-background:new 0 0 750 500;" xml:space="preserve">
<style type="text/css">
	.st0{clip-path:url(#SVGID_2_);fill:url(#SVGID_3_);}
	.st1{opacity:0.55;clip-path:url(#SVGID_2_);}
	.st2{fill:#FFEEFF;}
	.st3{clip-path:url(#SVGID_2_);fill:url(#SVGID_4_);}
	.st4{clip-path:url(#SVGID_2_);}
	.st5{fill:none;stroke:url(#SVGID_5_);stroke-width:0.5;stroke-miterlimit:10;}
	.st6{fill:none;stroke:url(#SVGID_6_);stroke-miterlimit:10;}
	.st7{fill:none;stroke:url(#SVGID_7_);stroke-miterlimit:10;}
	.st8{fill:none;stroke:url(#SVGID_8_);stroke-miterlimit:10;}
	.st9{fill:none;stroke:url(#SVGID_9_);stroke-linecap:round;stroke-linejoin:round;stroke-miterlimit:10;}
	.st10{fill:none;stroke:url(#SVGID_10_);stroke-width:0.5;stroke-miterlimit:10;}
	.st11{fill:none;stroke:url(#SVGID_11_);stroke-miterlimit:10;}
	.st12{fill:none;stroke:url(#SVGID_12_);stroke-miterlimit:10;}
	.st13{fill:none;stroke:url(#SVGID_13_);stroke-width:0.5;stroke-miterlimit:10;}
	.st14{fill:none;stroke:url(#SVGID_14_);stroke-linecap:round;stroke-linejoin:round;stroke-miterlimit:10;}
	.st15{fill:none;stroke:url(#SVGID_15_);stroke-miterlimit:10;}
	.st16{fill:none;stroke:url(#SVGID_16_);stroke-linecap:round;stroke-linejoin:round;stroke-miterlimit:10;}
	.st17{fill:none;stroke:url(#SVGID_17_);stroke-miterlimit:10;}
	.st18{fill:none;stroke:url(#SVGID_18_);stroke-width:0.5;stroke-miterlimit:10;}
	.st19{fill:none;stroke:url(#SVGID_19_);stroke-linecap:round;stroke-linejoin:round;stroke-miterlimit:10;}
	.st20{fill:none;stroke:url(#SVGID_20_);stroke-miterlimit:10;}
	.st21{fill:none;stroke:url(#SVGID_21_);stroke-linecap:round;stroke-linejoin:round;stroke-miterlimit:10;}
	.st22{fill:none;stroke:url(#SVGID_22_);stroke-miterlimit:10;}
	.st23{fill:none;stroke:url(#SVGID_23_);stroke-width:0.5;stroke-miterlimit:10;}
	.st24{fill:none;stroke:url(#SVGID_24_);stroke-miterlimit:10;}
	.st25{fill:none;stroke:url(#SVGID_25_);stroke-miterlimit:10;}
	.st26{fill:none;stroke:url(#SVGID_26_);stroke-miterlimit:10;}
	.st27{fill:none;stroke:url(#SVGID_27_);stroke-width:0.5;stroke-miterlimit:10;}
	.st28{fill:none;stroke:url(#SVGID_28_);stroke-width:0.5;stroke-miterlimit:10;}
	.st29{fill:none;stroke:url(#SVGID_29_);stroke-linecap:round;stroke-linejoin:round;stroke-miterlimit:10;}
	.st30{opacity:0.6;fill:none;stroke:url(#SVGID_30_);stroke-miterlimit:10;}
	.st31{opacity:0.4;fill:none;stroke:url(#SVGID_31_);stroke-miterlimit:10;}
	.st32{opacity:0.41;fill:none;stroke:url(#SVGID_32_);stroke-miterlimit:10;}
	.st33{opacity:0.41;fill:none;stroke:url(#SVGID_33_);stroke-miterlimit:10;}
	.st34{opacity:0.41;fill:none;stroke:url(#SVGID_34_);stroke-miterlimit:10;}
	.st35{opacity:0.41;fill:none;stroke:url(#SVGID_35_);stroke-miterlimit:10;}
	.st36{opacity:0.41;fill:none;stroke:url(#SVGID_36_);stroke-miterlimit:10;}
	.st37{fill:none;stroke:url(#SVGID_37_);stroke-miterlimit:10;}
	.st38{fill:none;stroke:url(#SVGID_38_);stroke-miterlimit:10;}
	.st39{opacity:0.41;fill:none;stroke:url(#SVGID_39_);stroke-miterlimit:10;}
	.st40{opacity:0.41;fill:none;stroke:url(#SVGID_40_);stroke-miterlimit:10;}
	.st41{opacity:0.41;fill:none;stroke:url(#SVGID_41_);stroke-miterlimit:10;}
	.st42{opacity:0.41;fill:none;stroke:url(#SVGID_42_);stroke-miterlimit:10;}
	.st43{opacity:0.41;fill:none;stroke:url(#SVGID_43_);stroke-miterlimit:10;}
	.st44{opacity:0.39;fill:none;stroke:url(#SVGID_44_);stroke-miterlimit:10;}
	.st45{fill:none;stroke:url(#SVGID_45_);stroke-linecap:round;stroke-linejoin:round;stroke-miterlimit:10;}
	.st46{fill:none;stroke:url(#SVGID_46_);stroke-miterlimit:10;}
	.st47{fill:none;stroke:url(#SVGID_47_);stroke-miterlimit:10;}
	.st48{fill:none;stroke:url(#SVGID_48_);stroke-width:0.5;stroke-miterlimit:10;}
	.st49{fill:none;stroke:url(#SVGID_49_);stroke-miterlimit:10;}
	.st50{fill:none;stroke:url(#SVGID_50_);stroke-linecap:round;stroke-linejoin:round;stroke-miterlimit:10;}
	.st51{fill:none;stroke:url(#SVGID_51_);stroke-linecap:round;stroke-linejoin:round;stroke-miterlimit:10;}
	.st52{fill:none;stroke:url(#SVGID_52_);stroke-width:0.5;stroke-miterlimit:10;}
	.st53{fill:none;stroke:url(#SVGID_53_);stroke-linecap:round;stroke-linejoin:round;stroke-miterlimit:10;}
	.st54{fill:none;stroke:url(#SVGID_54_);stroke-width:0.5;stroke-miterlimit:10;}
	.st55{fill:none;stroke:url(#SVGID_55_);stroke-width:0.5;stroke-miterlimit:10;}
	.st56{fill:none;stroke:url(#SVGID_56_);stroke-width:0.5;stroke-miterlimit:10;}
	.st57{fill:none;stroke:url(#SVGID_57_);stroke-width:0.5;stroke-miterlimit:10;}
	.st58{fill:none;stroke:url(#SVGID_58_);stroke-width:0.5;stroke-miterlimit:10;}
	.st59{fill:none;stroke:url(#SVGID_59_);stroke-width:0.5;stroke-miterlimit:10;}
	.st60{fill:none;stroke:url(#SVGID_60_);stroke-width:0.5;stroke-miterlimit:10;}
	.st61{fill:none;stroke:url(#SVGID_61_);stroke-width:0.5;stroke-miterlimit:10;}
	.st62{fill:none;stroke:url(#SVGID_62_);stroke-width:0.5;stroke-miterlimit:10;}
	.st63{fill:none;stroke:url(#SVGID_63_);stroke-width:0.5;stroke-miterlimit:10;}
	.st64{fill:#E7C4E8;}
</style>
<g id="BACKGROUND_2">
	<g>
		<defs>
			<rect id="SVGID_1_" width="750" height="500"/>
		</defs>
		<clipPath id="SVGID_2_">
			<use xlink:href="#SVGID_1_"  style="overflow:visible;"/>
		</clipPath>
		<linearGradient id="SVGID_3_" gradientUnits="userSpaceOnUse" x1="659.5353" y1="554.0909" x2="42.9544" y2="-104.8665">
			<stop  offset="0" style="stop-color:#8F258F"/>
			<stop  offset="1" style="stop-color:#000044"/>
		</linearGradient>
		<rect class="st0" width="750" height="500"/>
		<g class="st1">
			<g>
				<g>
					<circle class="st2" cx="407.6" cy="292.6" r="0.9"/>
				</g>
			</g>
			<g>
				<g>
					<circle class="st2" cx="371.3" cy="294.1" r="0.9"/>
				</g>
			</g>
			<g>
				<g>
					<circle class="st2" cx="324" cy="310.6" r="1.3"/>
				</g>
			</g>
			<g>
				<g>
					<circle class="st2" cx="324" cy="322.5" r="1.5"/>
				</g>
			</g>
			<g>
				<g>
					<circle class="st2" cx="353.8" cy="333.1" r="0.9"/>
				</g>
			</g>
			<g>
				<g>
					<circle class="st2" cx="420.5" cy="354.3" r="0.9"/>
				</g>
			</g>
			<g>
				<g>
					<circle class="st2" cx="463.4" cy="383.5" r="0.9"/>
				</g>
			</g>
			<g>
				<g>
					<circle class="st2" cx="480.4" cy="425.9" r="0.9"/>
				</g>
			</g>
			<g>
				<g>
					<circle class="st2" cx="414.1" cy="444.4" r="0.9"/>
				</g>
			</g>
			<g>
				<g>
					<circle class="st2" cx="324.9" cy="445.6" r="0.9"/>
				</g>
			</g>
			<g>
				<g>
					<circle class="st2" cx="317.4" cy="448.7" r="0.9"/>
				</g>
			</g>
			<g>
				<g>
					<circle class="st2" cx="330" cy="436.8" r="0.9"/>
				</g>
			</g>
			<g>
				<g>
					<circle class="st2" cx="393.6" cy="378.7" r="1.4"/>
				</g>
			</g>
			<g>
				<g>
					<circle class="st2" cx="439.7" cy="394.9" r="0.9"/>
				</g>
			</g>
			<g>
				<g>
					<circle class="st2" cx="527.4" cy="394.5" r="2.1"/>
				</g>
			</g>
			<g>
				<g>
					<circle class="st2" cx="613" cy="384.8" r="0.9"/>
				</g>
			</g>
			<g>
				<g>
					<circle class="st2" cx="679.1" cy="312.9" r="0.9"/>
				</g>
			</g>
			<g>
				<g>
					<circle class="st2" cx="649.6" cy="295.4" r="0.9"/>
				</g>
			</g>
			<g>
				<g>
					<circle class="st2" cx="649.9" cy="263.2" r="0.9"/>
				</g>
			</g>
			<g>
				<g>
					<circle class="st2" cx="604.9" cy="270.9" r="1.9"/>
				</g>
			</g>
			<g>
				<g>
					<circle class="st2" cx="604.9" cy="279.6" r="2.7"/>
				</g>
			</g>
			<g>
				<g>
					<circle class="st2" cx="572.4" cy="277.4" r="0.9"/>
				</g>
			</g>
			<g>
				<g>
					<circle class="st2" cx="548.2" cy="235.2" r="0.9"/>
				</g>
			</g>
			<g>
				<g>
					<circle class="st2" cx="509.5" cy="198.1" r="0.9"/>
				</g>
			</g>
			<g>
				<g>
					<circle class="st2" cx="467.1" cy="183.5" r="0.9"/>
				</g>
			</g>
			<g>
				<g>
					<circle class="st2" cx="447.4" cy="171" r="0.9"/>
				</g>
			</g>
			<g>
				<g>
					<circle class="st2" cx="320" cy="211.3" r="0.9"/>
				</g>
			</g>
			<g>
				<g>
					<circle class="st2" cx="270.4" cy="196.5" r="0.9"/>
				</g>
			</g>
			<g>
				<g>
					<circle class="st2" cx="341.7" cy="128" r="0.9"/>
				</g>
			</g>
			<g>
				<g>
					<circle class="st2" cx="447.6" cy="113" r="0.9"/>
				</g>
			</g>
			<g>
				<g>
					<circle class="st2" cx="499.2" cy="107.2" r="0.9"/>
				</g>
			</g>
			<g>
				<g>
					<circle class="st2" cx="523" cy="102.9" r="0.9"/>
				</g>
			</g>
			<g>
				<g>
					<circle class="st2" cx="620.7" cy="63.1" r="0.9"/>
				</g>
			</g>
			<g>
				<g>
					<circle class="st2" cx="607.8" cy="98.8" r="0.9"/>
				</g>
			</g>
			<g>
				<g>
					<circle class="st2" cx="513" cy="144" r="0.9"/>
				</g>
			</g>
			<g>
				<g>
					<circle class="st2" cx="359.3" cy="181.4" r="0.9"/>
				</g>
			</g>
			<g>
				<g>
					<circle class="st2" cx="371.6" cy="216.8" r="0.9"/>
				</g>
			</g>
			<g>
				<g>
					<circle class="st2" cx="345.3" cy="238.9" r="2.3"/>
				</g>
			</g>
			<g>
				<g>
					<circle class="st2" cx="271" cy="263.7" r="0.9"/>
				</g>
			</g>
			<g>
				<g>
					<circle class="st2" cx="188.9" cy="271.4" r="0.9"/>
				</g>
			</g>
			<g>
				<g>
					<circle class="st2" cx="152.9" cy="312.6" r="1.6"/>
				</g>
			</g>
			<g>
				<g>
					<circle class="st2" cx="151.3" cy="328.8" r="1.8"/>
				</g>
			</g>
			<g>
				<g>
					<circle class="st2" cx="126" cy="354.5" r="0.9"/>
				</g>
			</g>
			<g>
				<g>
					<circle class="st2" cx="108.6" cy="398.9" r="0.9"/>
				</g>
			</g>
			<g>
				<g>
					<circle class="st2" cx="118.6" cy="383.4" r="0.9"/>
				</g>
			</g>
			<g>
				<g>
					<circle class="st2" cx="113.2" cy="391.3" r="0.9"/>
				</g>
			</g>
			<g>
				<g>
					<circle class="st2" cx="136.1" cy="394.8" r="0.9"/>
				</g>
			</g>
			<g>
				<g>
					<circle class="st2" cx="126.9" cy="372.8" r="0.9"/>
				</g>
			</g>
			<g>
				<g>
					<circle class="st2" cx="120.7" cy="369.1" r="0.9"/>
				</g>
			</g>
			<g>
				<g>
					<circle class="st2" cx="217.8" cy="448.4" r="0.9"/>
				</g>
			</g>
			<g>
				<g>
					<circle class="st2" cx="253.1" cy="464" r="1.4"/>
				</g>
			</g>
			<g>
				<g>
					<circle class="st2" cx="270.7" cy="471.4" r="1.2"/>
				</g>
			</g>
			<g>
				<g>
					<circle class="st2" cx="267.6" cy="432.4" r="2.6"/>
				</g>
			</g>
			<g>
				<g>
					<circle class="st2" cx="261.8" cy="409.6" r="0.9"/>
				</g>
			</g>
			<g>
				<g>
					<circle class="st2" cx="285.4" cy="422.5" r="1.7"/>
				</g>
			</g>
			<g>
				<g>
					<circle class="st2" cx="344.2" cy="460.2" r="0.9"/>
				</g>
			</g>
			<g>
				<g>
					<circle class="st2" cx="248.6" cy="469.1" r="0.9"/>
				</g>
			</g>
			<g>
				<g>
					<circle class="st2" cx="194.8" cy="481" r="1.3"/>
				</g>
			</g>
			<g>
				<g>
					<circle class="st2" cx="180.5" cy="472.7" r="0.9"/>
				</g>
			</g>
			<g>
				<g>
					<circle class="st2" cx="159.1" cy="478" r="1.8"/>
				</g>
			</g>
			<g>
				<g>
					<circle class="st2" cx="304.8" cy="471.4" r="0.9"/>
				</g>
			</g>
			<g>
				<g>
					<circle class="st2" cx="339.4" cy="466.4" r="0.9"/>
				</g>
			</g>
			<g>
				<g>
					<circle class="st2" cx="388.2" cy="483.1" r="0.9"/>
				</g>
			</g>
			<g>
				<g>
					<circle class="st2" cx="434.6" cy="456" r="0.9"/>
				</g>
			</g>
			<g>
				<g>
					<circle class="st2" cx="433.3" cy="471.8" r="0.9"/>
				</g>
			</g>
			<g>
				<g>
					<circle class="st2" cx="417.7" cy="453.1" r="0.9"/>
				</g>
			</g>
			<g>
				<g>
					<circle class="st2" cx="419.9" cy="465" r="0.9"/>
				</g>
			</g>
			<g>
				<g>
					<circle class="st2" cx="458.6" cy="466.6" r="0.9"/>
				</g>
			</g>
			<g>
				<g>
					<circle class="st2" cx="592" cy="483.6" r="0.9"/>
				</g>
			</g>
			<g>
				<g>
					<circle class="st2" cx="612" cy="482.6" r="0.9"/>
				</g>
			</g>
			<g>
				<g>
					<circle class="st2" cx="648.8" cy="484.6" r="0.9"/>
				</g>
			</g>
			<g>
				<g>
					<circle class="st2" cx="593.4" cy="452.5" r="0.9"/>
				</g>
			</g>
			<g>
				<g>
					<circle class="st2" cx="514.3" cy="306.9" r="0.9"/>
				</g>
			</g>
			<g>
				<g>
					<circle class="st2" cx="492.4" cy="329.4" r="0.9"/>
				</g>
			</g>
			<g>
				<g>
					<circle class="st2" cx="484.1" cy="272" r="0.9"/>
				</g>
			</g>
			<g>
				<g>
					<circle class="st2" cx="487.8" cy="258.6" r="0.9"/>
				</g>
			</g>
			<g>
				<g>
					<circle class="st2" cx="468.9" cy="255.5" r="0.9"/>
				</g>
			</g>
			<g>
				<g>
					<circle class="st2" cx="572.7" cy="157.3" r="3.1"/>
				</g>
			</g>
			<g>
				<g>
					<circle class="st2" cx="569.6" cy="133.4" r="1.1"/>
				</g>
			</g>
			<g>
				<g>
					<circle class="st2" cx="580.6" cy="135" r="1"/>
				</g>
			</g>
			<g>
				<g>
					<circle class="st2" cx="605.5" cy="126.6" r="1.1"/>
				</g>
			</g>
			<g>
				<g>
					<circle class="st2" cx="603.8" cy="120" r="0.9"/>
				</g>
			</g>
			<g>
				<g>
					<circle class="st2" cx="596" cy="116.2" r="0.9"/>
				</g>
			</g>
			<g>
				<g>
					<circle class="st2" cx="595.1" cy="120.7" r="0.9"/>
				</g>
			</g>
			<g>
				<g>
					<circle class="st2" cx="610.3" cy="176.2" r="0.9"/>
				</g>
			</g>
			<g>
				<g>
					<circle class="st2" cx="628.7" cy="204.9" r="0.9"/>
				</g>
			</g>
			<g>
				<g>
					<circle class="st2" cx="682.3" cy="202.3" r="0.9"/>
				</g>
			</g>
			<g>
				<g>
					<circle class="st2" cx="343.3" cy="141.2" r="0.9"/>
				</g>
			</g>
			<g>
				<g>
					<circle class="st2" cx="270.1" cy="106" r="2.7"/>
				</g>
			</g>
			<g>
				<g>
					<circle class="st2" cx="248.5" cy="90" r="1.4"/>
				</g>
			</g>
			<g>
				<g>
					<circle class="st2" cx="218.5" cy="99" r="0.9"/>
				</g>
			</g>
			<g>
				<g>
					<circle class="st2" cx="205" cy="74.5" r="0.9"/>
				</g>
			</g>
			<g>
				<g>
					<circle class="st2" cx="226.5" cy="59.8" r="0.9"/>
				</g>
			</g>
			<g>
				<g>
					<circle class="st2" cx="186.3" cy="58.2" r="0.9"/>
				</g>
			</g>
			<g>
				<g>
					<circle class="st2" cx="182.3" cy="37.2" r="0.9"/>
				</g>
			</g>
			<g>
				<g>
					<circle class="st2" cx="180.8" cy="62.3" r="0.9"/>
				</g>
			</g>
			<g>
				<g>
					<circle class="st2" cx="212.4" cy="149.2" r="0.9"/>
				</g>
			</g>
			<g>
				<g>
					<circle class="st2" cx="193.4" cy="134.3" r="0.9"/>
				</g>
			</g>
			<g>
				<g>
					<circle class="st2" cx="151.9" cy="109.8" r="0.9"/>
				</g>
			</g>
			<g>
				<g>
					<circle class="st2" cx="163.4" cy="127.3" r="0.9"/>
				</g>
			</g>
			<g>
				<g>
					<circle class="st2" cx="182.8" cy="168.5" r="0.9"/>
				</g>
			</g>
			<g>
				<g>
					<circle class="st2" cx="115.6" cy="185.6" r="0.9"/>
				</g>
			</g>
			<g>
				<g>
					<circle class="st2" cx="349.1" cy="49.8" r="0.9"/>
				</g>
			</g>
			<g>
				<g>
					<circle class="st2" cx="351.3" cy="21.8" r="0.9"/>
				</g>
			</g>
			<g>
				<g>
					<circle class="st2" cx="345.8" cy="12.5" r="0.9"/>
				</g>
			</g>
			<g>
				<g>
					<circle class="st2" cx="325.8" cy="8.1" r="0.9"/>
				</g>
			</g>
		</g>
		<g class="st1">
			<g>
				<g>
					<circle class="st2" cx="90.4" cy="133.1" r="0.9"/>
				</g>
			</g>
			<g>
				<g>
					<circle class="st2" cx="53.4" cy="68.1" r="0.9"/>
				</g>
			</g>
			<g>
				<g>
					<circle class="st2" cx="70.6" cy="63.2" r="0.9"/>
				</g>
			</g>
			<g>
				<g>
					<circle class="st2" cx="78.6" cy="38.2" r="0.9"/>
				</g>
			</g>
			<g>
				<g>
					<circle class="st2" cx="26.5" cy="46.9" r="0.9"/>
				</g>
			</g>
			<g>
				<g>
					<circle class="st2" cx="20.1" cy="46.9" r="0.9"/>
				</g>
			</g>
			<g>
				<g>
					<circle class="st2" cx="-6.6" cy="118" r="0.9"/>
				</g>
			</g>
			<g>
				<g>
					<circle class="st2" cx="13.4" cy="92.9" r="0.9"/>
				</g>
			</g>
			<g>
				<g>
					<circle class="st2" cx="17.5" cy="106.8" r="0.9"/>
				</g>
			</g>
			<g>
				<g>
					<circle class="st2" cx="74" cy="92.7" r="0.9"/>
				</g>
			</g>
			<g>
				<g>
					<circle class="st2" cx="108.2" cy="69.6" r="0.9"/>
				</g>
			</g>
			<g>
				<g>
					<circle class="st2" cx="118.2" cy="57.2" r="0.9"/>
				</g>
			</g>
			<g>
				<g>
					<circle class="st2" cx="97.7" cy="31" r="0.9"/>
				</g>
			</g>
			<g>
				<g>
					<circle class="st2" cx="45.8" cy="6.1" r="0.9"/>
				</g>
			</g>
			<g>
				<g>
					<circle class="st2" cx="19" cy="9" r="0.9"/>
				</g>
			</g>
			<g>
				<g>
					<circle class="st2" cx="20.8" cy="0.9" r="0.9"/>
				</g>
			</g>
			<g>
				<g>
					<circle class="st2" cx="55.6" cy="17.4" r="0.9"/>
				</g>
			</g>
			<g>
				<g>
					<circle class="st2" cx="125.7" cy="21.9" r="0.9"/>
				</g>
			</g>
			<g>
				<g>
					<circle class="st2" cx="158" cy="15.5" r="0.9"/>
				</g>
			</g>
			<g>
				<g>
					<circle class="st2" cx="18.5" cy="179.5" r="0.9"/>
				</g>
			</g>
			<g>
				<g>
					<circle class="st2" cx="12.3" cy="203.9" r="0.9"/>
				</g>
			</g>
			<g>
				<g>
					<circle class="st2" cx="20.7" cy="227.2" r="0.9"/>
				</g>
			</g>
			<g>
				<g>
					<circle class="st2" cx="4.2" cy="256" r="0.9"/>
				</g>
			</g>
			<g>
				<g>
					<circle class="st2" cx="-11.3" cy="282.5" r="0.9"/>
				</g>
			</g>
			<g>
				<g>
					<circle class="st2" cx="-16.1" cy="298.7" r="0.9"/>
				</g>
			</g>
			<g>
				<g>
					<circle class="st2" cx="50.9" cy="258.3" r="0.9"/>
				</g>
			</g>
			<g>
				<g>
					<circle class="st2" cx="57.6" cy="250.1" r="0.9"/>
				</g>
			</g>
			<g>
				<g>
					<circle class="st2" cx="88" cy="250" r="0.9"/>
				</g>
			</g>
			<g>
				<g>
					<circle class="st2" cx="92.3" cy="239.7" r="0.9"/>
				</g>
			</g>
			<g>
				<g>
					<circle class="st2" cx="74.6" cy="216" r="0.9"/>
				</g>
			</g>
			<g>
				<g>
					<circle class="st2" cx="91" cy="220.6" r="0.9"/>
				</g>
			</g>
			<g>
				<g>
					<circle class="st2" cx="113.9" cy="229.1" r="0.9"/>
				</g>
			</g>
			<g>
				<g>
					<circle class="st2" cx="122.5" cy="242" r="0.9"/>
				</g>
			</g>
			<g>
				<g>
					<circle class="st2" cx="92.8" cy="259.4" r="0.9"/>
				</g>
			</g>
			<g>
				<g>
					<circle class="st2" cx="7.4" cy="289" r="0.9"/>
				</g>
			</g>
			<g>
				<g>
					<circle class="st2" cx="-0.2" cy="323.2" r="0.9"/>
				</g>
			</g>
			<g>
				<g>
					<circle class="st2" cx="33.2" cy="320.2" r="0.9"/>
				</g>
			</g>
			<g>
				<g>
					<circle class="st2" cx="68.5" cy="287.7" r="0.9"/>
				</g>
			</g>
			<g>
				<g>
					<circle class="st2" cx="70.2" cy="296.5" r="0.9"/>
				</g>
			</g>
			<g>
				<g>
					<circle class="st2" cx="34.5" cy="334" r="0.9"/>
				</g>
			</g>
			<g>
				<g>
					<circle class="st2" cx="16.6" cy="396.1" r="0.9"/>
				</g>
			</g>
			<g>
				<g>
					<circle class="st2" cx="-10.4" cy="422.7" r="0.9"/>
				</g>
			</g>
			<g>
				<g>
					<circle class="st2" cx="32.1" cy="428.6" r="0.9"/>
				</g>
			</g>
			<g>
				<g>
					<circle class="st2" cx="84.9" cy="433.7" r="0.9"/>
				</g>
			</g>
			<g>
				<g>
					<circle class="st2" cx="82.9" cy="365.1" r="0.9"/>
				</g>
			</g>
			<g>
				<g>
					<circle class="st2" cx="105.5" cy="400.6" r="0.9"/>
				</g>
			</g>
			<g>
				<g>
					<circle class="st2" cx="100.9" cy="424.2" r="0.9"/>
				</g>
			</g>
			<g>
				<g>
					<circle class="st2" cx="106.5" cy="463.8" r="0.9"/>
				</g>
			</g>
			<g>
				<g>
					<circle class="st2" cx="76" cy="488.2" r="0.9"/>
				</g>
			</g>
			<g>
				<g>
					<circle class="st2" cx="34.1" cy="506.2" r="0.9"/>
				</g>
			</g>
			<g>
				<g>
					<circle class="st2" cx="62.6" cy="400.8" r="0.9"/>
				</g>
			</g>
			<g>
				<g>
					<circle class="st2" cx="130.5" cy="119.5" r="0.9"/>
				</g>
			</g>
			<g>
				<g>
					<circle class="st2" cx="135.2" cy="135.8" r="0.9"/>
				</g>
			</g>
			<g>
				<g>
					<circle class="st2" cx="136.8" cy="143.6" r="0.9"/>
				</g>
			</g>
			<g>
				<g>
					<circle class="st2" cx="58.4" cy="129.6" r="0.9"/>
				</g>
			</g>
			<g>
				<g>
					<circle class="st2" cx="204.8" cy="11.3" r="0.9"/>
				</g>
			</g>
			<g>
				<g>
					<circle class="st2" cx="232.8" cy="9.2" r="0.9"/>
				</g>
			</g>
			<g>
				<g>
					<circle class="st2" cx="332" cy="0.3" r="0.9"/>
				</g>
			</g>
			<g>
				<g>
					<circle class="st2" cx="596.1" cy="14.8" r="0.9"/>
				</g>
			</g>
			<g>
				<g>
					<circle class="st2" cx="668.9" cy="15.4" r="0.9"/>
				</g>
			</g>
			<g>
				<g>
					<circle class="st2" cx="718.3" cy="11.4" r="0.9"/>
				</g>
			</g>
			<g>
				<g>
					<circle class="st2" cx="693" cy="33" r="0.9"/>
				</g>
			</g>
			<g>
				<g>
					<circle class="st2" cx="690.2" cy="59.4" r="0.9"/>
				</g>
			</g>
			<g>
				<g>
					<circle class="st2" cx="694.6" cy="69.6" r="0.9"/>
				</g>
			</g>
			<g>
				<g>
					<circle class="st2" cx="731.7" cy="111.8" r="0.9"/>
				</g>
			</g>
			<g>
				<g>
					<circle class="st2" cx="733.1" cy="125.9" r="0.9"/>
				</g>
			</g>
			<g>
				<g>
					<circle class="st2" cx="669.9" cy="94.4" r="0.9"/>
				</g>
			</g>
			<g>
				<g>
					<circle class="st2" cx="637" cy="73" r="0.9"/>
				</g>
			</g>
			<g>
				<g>
					<circle class="st2" cx="652.7" cy="66.1" r="0.9"/>
				</g>
			</g>
			<g>
				<g>
					<circle class="st2" cx="732.9" cy="47.7" r="0.9"/>
				</g>
			</g>
			<g>
				<g>
					<circle class="st2" cx="747" cy="43.4" r="0.9"/>
				</g>
			</g>
			<g>
				<g>
					<circle class="st2" cx="746.6" cy="36.7" r="0.9"/>
				</g>
			</g>
			<g>
				<g>
					<circle class="st2" cx="754.2" cy="102.1" r="0.9"/>
				</g>
			</g>
			<g>
				<g>
					<circle class="st2" cx="763.2" cy="158.5" r="0.9"/>
				</g>
			</g>
			<g>
				<g>
					<circle class="st2" cx="756" cy="167.2" r="0.9"/>
				</g>
			</g>
			<g>
				<g>
					<circle class="st2" cx="733" cy="134" r="0.9"/>
				</g>
			</g>
			<g>
				<g>
					<circle class="st2" cx="738.9" cy="176.2" r="0.9"/>
				</g>
			</g>
			<g>
				<g>
					<circle class="st2" cx="769.3" cy="230.1" r="0.9"/>
				</g>
			</g>
			<g>
				<g>
					<circle class="st2" cx="463.4" cy="11.2" r="0.9"/>
				</g>
			</g>
			<g>
				<g>
					<circle class="st2" cx="540.2" cy="16.1" r="0.9"/>
				</g>
			</g>
			<g>
				<g>
					<circle class="st2" cx="483.5" cy="31.6" r="0.9"/>
				</g>
			</g>
			<g>
				<g>
					<circle class="st2" cx="560.2" cy="37.9" r="0.9"/>
				</g>
			</g>
			<g>
				<g>
					<circle class="st2" cx="451.1" cy="65.5" r="0.9"/>
				</g>
			</g>
			<g>
				<g>
					<circle class="st2" cx="526.7" cy="78.2" r="0.9"/>
				</g>
			</g>
			<g>
				<g>
					<circle class="st2" cx="155.3" cy="255.6" r="0.9"/>
				</g>
			</g>
			<g>
				<g>
					<circle class="st2" cx="680" cy="117.3" r="0.9"/>
				</g>
			</g>
			<g>
				<g>
					<circle class="st2" cx="727.1" cy="161.9" r="0.9"/>
				</g>
			</g>
			<g>
				<g>
					<circle class="st2" cx="731.2" cy="212" r="0.9"/>
				</g>
			</g>
			<g>
				<g>
					<circle class="st2" cx="771.5" cy="262.6" r="0.9"/>
				</g>
			</g>
			<g>
				<g>
					<circle class="st2" cx="45.3" cy="460.7" r="0.9"/>
				</g>
			</g>
			<g>
				<g>
					<circle class="st2" cx="-58.8" cy="528.7" r="0.9"/>
				</g>
			</g>
			<g>
				<g>
					<circle class="st2" cx="9.7" cy="475" r="0.9"/>
				</g>
			</g>
			<g>
				<g>
					<circle class="st2" cx="-5.5" cy="515.8" r="0.9"/>
				</g>
			</g>
			<g>
				<g>
					<circle class="st2" cx="3.2" cy="493" r="0.9"/>
				</g>
			</g>
			<g>
				<g>
					<circle class="st2" cx="30.4" cy="522.6" r="0.9"/>
				</g>
			</g>
		</g>
		<radialGradient id="SVGID_4_" cx="640.4322" cy="516.8266" r="826.0115" gradientUnits="userSpaceOnUse">
			<stop  offset="7.644150e-02" style="stop-color:#FFAB00"/>
			<stop  offset="0.1486" style="stop-color:#FF9C00;stop-opacity:0.8241"/>
			<stop  offset="0.4661" style="stop-color:#FF5C00;stop-opacity:5.000000e-02"/>
			<stop  offset="0.4685" style="stop-color:#FF5C02;stop-opacity:4.977986e-02"/>
			<stop  offset="0.5328" style="stop-color:#FF673D;stop-opacity:4.375324e-02"/>
			<stop  offset="0.5988" style="stop-color:#FF7171;stop-opacity:3.757650e-02"/>
			<stop  offset="0.6648" style="stop-color:#FF799C;stop-opacity:3.139156e-02"/>
			<stop  offset="0.731" style="stop-color:#FF80C0;stop-opacity:2.519150e-02"/>
			<stop  offset="0.7974" style="stop-color:#FF85DC;stop-opacity:1.897170e-02"/>
			<stop  offset="0.8641" style="stop-color:#FF89EF;stop-opacity:1.272660e-02"/>
			<stop  offset="0.9314" style="stop-color:#FF8BFB;stop-opacity:6.429102e-03"/>
			<stop  offset="1" style="stop-color:#FF8CFF;stop-opacity:0"/>
		</radialGradient>
		<circle class="st3" cx="499.8" cy="454.5" r="596.5"/>
		<g class="st4">
			<linearGradient id="SVGID_5_" gradientUnits="userSpaceOnUse" x1="409.6294" y1="286.134" x2="484.7985" y2="361.3031">
				<stop  offset="0" style="stop-color:#B9438F"/>
				<stop  offset="0.9873" style="stop-color:#6769FF"/>
			</linearGradient>
			<polygon class="st5" points="510.3,334.8 411.6,340.2 419.4,277 			"/>
			<linearGradient id="SVGID_6_" gradientUnits="userSpaceOnUse" x1="503.7035" y1="277.0363" x2="591.9935" y2="365.3264">
				<stop  offset="0" style="stop-color:#B9438F"/>
				<stop  offset="0.9873" style="stop-color:#6769FF"/>
			</linearGradient>
			<polygon class="st6" points="587.3,264.6 551.3,404.8 455.8,326 			"/>
			<linearGradient id="SVGID_7_" gradientUnits="userSpaceOnUse" x1="556.8224" y1="123.397" x2="650.8038" y2="217.3784">
				<stop  offset="0" style="stop-color:#B9438F"/>
				<stop  offset="0.9873" style="stop-color:#6769FF"/>
			</linearGradient>
			<path class="st7" d="M648.1,120c-1.9,0-116,29.2-116,29.2l55.2,115.4l118.5-103L648.1,120z"/>
			<linearGradient id="SVGID_8_" gradientUnits="userSpaceOnUse" x1="477.8692" y1="168.91" x2="581.4029" y2="272.4438">
				<stop  offset="0" style="stop-color:#B9438F"/>
				<stop  offset="0.9873" style="stop-color:#6769FF"/>
			</linearGradient>
			<polygon class="st8" points="441.5,206.3 532.1,149.2 587.3,264.6 			"/>
			<linearGradient id="SVGID_9_" gradientUnits="userSpaceOnUse" x1="436.6585" y1="210.41" x2="539.429" y2="313.1804">
				<stop  offset="0" style="stop-color:#B9438F"/>
				<stop  offset="0.9873" style="stop-color:#6769FF"/>
			</linearGradient>
			<polygon class="st9" points="455.8,326 587.3,264.6 441.5,206.3 			"/>
			<linearGradient id="SVGID_10_" gradientUnits="userSpaceOnUse" x1="362.7778" y1="375.3383" x2="404.8688" y2="417.4293">
				<stop  offset="0" style="stop-color:#B9438F"/>
				<stop  offset="0.9873" style="stop-color:#6769FF"/>
			</linearGradient>
			<polygon class="st10" points="321.3,417.2 411.6,340.2 424.4,397.4 			"/>
			<linearGradient id="SVGID_11_" gradientUnits="userSpaceOnUse" x1="321.4268" y1="340.0313" x2="402.1889" y2="420.7934">
				<stop  offset="0" style="stop-color:#B9438F"/>
				<stop  offset="0.9873" style="stop-color:#6769FF"/>
			</linearGradient>
			<polygon class="st11" points="360.9,301.8 321.3,417.2 424.4,397.4 			"/>
			<linearGradient id="SVGID_12_" gradientUnits="userSpaceOnUse" x1="303.491" y1="433.757" x2="428.74" y2="559.006">
				<stop  offset="0" style="stop-color:#B9438F"/>
				<stop  offset="0.9873" style="stop-color:#6769FF"/>
			</linearGradient>
			<path class="st12" d="M483.7,501.5c-3.1,0-162.7,65.3-162.3,63.4c0.4-1.9,0-147.7,0-147.7L483.7,501.5z"/>
			<linearGradient id="SVGID_13_" gradientUnits="userSpaceOnUse" x1="542.8022" y1="308.447" x2="613.7711" y2="379.4159">
				<stop  offset="0" style="stop-color:#B9438F"/>
				<stop  offset="0.9873" style="stop-color:#6769FF"/>
			</linearGradient>
			<polygon class="st13" points="651.8,340.9 587.3,264.6 551.3,404.8 			"/>
			<linearGradient id="SVGID_14_" gradientUnits="userSpaceOnUse" x1="642.3439" y1="208.8512" x2="714.0974" y2="280.6046">
				<stop  offset="0" style="stop-color:#B9438F"/>
				<stop  offset="0.9873" style="stop-color:#6769FF"/>
			</linearGradient>
			<polygon class="st14" points="705.8,161.6 587.3,264.6 685.4,308.6 			"/>
			<linearGradient id="SVGID_15_" gradientUnits="userSpaceOnUse" x1="608.6392" y1="346.6586" x2="726.7784" y2="464.7977">
				<stop  offset="0" style="stop-color:#B9438F"/>
				<stop  offset="0.9873" style="stop-color:#6769FF"/>
			</linearGradient>
			<polygon class="st15" points="551.3,404.8 679.8,510.3 685.4,308.6 			"/>
			<linearGradient id="SVGID_16_" gradientUnits="userSpaceOnUse" x1="433.9344" y1="347.1451" x2="521.8207" y2="435.0313">
				<stop  offset="0" style="stop-color:#B9438F"/>
				<stop  offset="0.9873" style="stop-color:#6769FF"/>
			</linearGradient>
			<polygon class="st16" points="424.4,397.4 551.3,404.8 455.8,326 			"/>
			<linearGradient id="SVGID_17_" gradientUnits="userSpaceOnUse" x1="513.6328" y1="441.6829" x2="596.6422" y2="524.6923">
				<stop  offset="0" style="stop-color:#B9438F"/>
				<stop  offset="0.9873" style="stop-color:#6769FF"/>
			</linearGradient>
			<polygon class="st17" points="641.2,478.6 483.7,501.5 551.3,404.8 			"/>
			<linearGradient id="SVGID_18_" gradientUnits="userSpaceOnUse" x1="417.9646" y1="229.2197" x2="500.6602" y2="311.9153">
				<stop  offset="0" style="stop-color:#B9438F"/>
				<stop  offset="0.9873" style="stop-color:#6769FF"/>
			</linearGradient>
			<polygon class="st18" points="441.5,206.3 419.4,277 521.5,290 			"/>
			<linearGradient id="SVGID_19_" gradientUnits="userSpaceOnUse" x1="478.0801" y1="168.9884" x2="539.2776" y2="230.1859">
				<stop  offset="0" style="stop-color:#B9438F"/>
				<stop  offset="0.9873" style="stop-color:#6769FF"/>
			</linearGradient>
			<polygon class="st19" points="532.1,149.2 547,221.8 441.5,206.3 			"/>
			<linearGradient id="SVGID_20_" gradientUnits="userSpaceOnUse" x1="462.1255" y1="183.5774" x2="545.6153" y2="267.0672">
				<stop  offset="0" style="stop-color:#B9438F"/>
				<stop  offset="0.9873" style="stop-color:#6769FF"/>
			</linearGradient>
			<polygon class="st20" points="521.5,290 547,221.8 441.5,206.3 			"/>
			<linearGradient id="SVGID_21_" gradientUnits="userSpaceOnUse" x1="596.4276" y1="171.0012" x2="639.0178" y2="213.5915">
				<stop  offset="0" style="stop-color:#B9438F"/>
				<stop  offset="0.9873" style="stop-color:#6769FF"/>
			</linearGradient>
			<polygon class="st21" points="648.1,120 547,221.8 587.3,264.6 			"/>
			<linearGradient id="SVGID_22_" gradientUnits="userSpaceOnUse" x1="397.8583" y1="297.0508" x2="473.0595" y2="372.2519">
				<stop  offset="0" style="stop-color:#B9438F"/>
				<stop  offset="0.9873" style="stop-color:#6769FF"/>
			</linearGradient>
			<polygon class="st22" points="424.4,397.4 509.8,334.7 419.4,277 			"/>
			<linearGradient id="SVGID_23_" gradientUnits="userSpaceOnUse" x1="347.67" y1="390.2895" x2="413.6992" y2="456.3186">
				<stop  offset="0" style="stop-color:#B9438F"/>
				<stop  offset="0.9873" style="stop-color:#6769FF"/>
			</linearGradient>
			<polygon class="st23" points="378.4,491.1 424.4,397.4 321.3,417.2 			"/>
			<linearGradient id="SVGID_24_" gradientUnits="userSpaceOnUse" x1="460.6947" y1="360.1107" x2="529.0966" y2="428.5125">
				<stop  offset="0" style="stop-color:#B9438F"/>
				<stop  offset="0.9873" style="stop-color:#6769FF"/>
			</linearGradient>
			<polygon class="st24" points="509.8,334.7 551.3,404.8 424.4,397.4 			"/>
			<linearGradient id="SVGID_25_" gradientUnits="userSpaceOnUse" x1="496.7069" y1="458.2693" x2="579.5253" y2="541.0876">
				<stop  offset="0" style="stop-color:#B9438F"/>
				<stop  offset="0.9873" style="stop-color:#6769FF"/>
			</linearGradient>
			<polygon class="st25" points="551.3,404.8 503.6,587.9 641.2,478.6 			"/>
			<linearGradient id="SVGID_26_" gradientUnits="userSpaceOnUse" x1="703.8996" y1="405.8896" x2="765.1907" y2="467.1807">
				<stop  offset="0" style="stop-color:#B9438F"/>
				<stop  offset="0.9873" style="stop-color:#6769FF"/>
			</linearGradient>
			<path class="st26" d="M767.9,344c0,0-30.4,152-32.3,152c-1.9,0-55.8,14.3-55.8,14.3L767.9,344z"/>
			<linearGradient id="SVGID_27_" gradientUnits="userSpaceOnUse" x1="543.8284" y1="267.2825" x2="636.2162" y2="359.6703">
				<stop  offset="0" style="stop-color:#B9438F"/>
				<stop  offset="0.9873" style="stop-color:#6769FF"/>
			</linearGradient>
			<polygon class="st27" points="509.8,334.7 685.4,308.6 521.5,290 			"/>
			<linearGradient id="SVGID_28_" gradientUnits="userSpaceOnUse" x1="679.9417" y1="312.4428" x2="740.4857" y2="372.9867">
				<stop  offset="0" style="stop-color:#B9438F"/>
				<stop  offset="0.9873" style="stop-color:#6769FF"/>
			</linearGradient>
			<polygon class="st28" points="767.9,344 685.4,308.6 651.8,340.9 			"/>
			<linearGradient id="SVGID_29_" gradientUnits="userSpaceOnUse" x1="663.5958" y1="203.1116" x2="786.5398" y2="326.0556">
				<stop  offset="0" style="stop-color:#B9438F"/>
				<stop  offset="0.9873" style="stop-color:#6769FF"/>
			</linearGradient>
			<polygon class="st29" points="705.8,161.6 767.9,344 685.4,308.6 			"/>
			<linearGradient id="SVGID_30_" gradientUnits="userSpaceOnUse" x1="285.9765" y1="63.8972" x2="435.1774" y2="213.0982">
				<stop  offset="0" style="stop-color:#B9438F"/>
				<stop  offset="0.9873" style="stop-color:#6769FF"/>
			</linearGradient>
			<polyline class="st30" points="256,94.6 336.3,54.2 379.2,152.3 378.2,206.3 441.5,206.3 			"/>
			<linearGradient id="SVGID_31_" gradientUnits="userSpaceOnUse" x1="482.8519" y1="67.8023" x2="531.0574" y2="116.0078">
				<stop  offset="0" style="stop-color:#B9438F"/>
				<stop  offset="0.9873" style="stop-color:#6769FF"/>
			</linearGradient>
			<polygon class="st31" points="503.6,48 470.5,154.8 580.8,65.4 			"/>
			<linearGradient id="SVGID_32_" gradientUnits="userSpaceOnUse" x1="392.2776" y1="44.8756" x2="435.6762" y2="88.2743">
				<stop  offset="0" style="stop-color:#B9438F"/>
				<stop  offset="0.9873" style="stop-color:#6769FF"/>
			</linearGradient>
			<polygon class="st32" points="383.8,54.2 440.8,28.8 402.5,120 			"/>
			
				<linearGradient id="SVGID_33_" gradientUnits="userSpaceOnUse" x1="99.0845" y1="150.6939" x2="124.637" y2="176.2464" gradientTransform="matrix(0.6477 0.7619 -0.7619 0.6477 181.6939 7.1591)">
				<stop  offset="0" style="stop-color:#B9438F"/>
				<stop  offset="0.9873" style="stop-color:#6769FF"/>
			</linearGradient>
			<polygon class="st33" points="123.7,180.3 156.2,195.8 101.8,213.1 			"/>
			<linearGradient id="SVGID_34_" gradientUnits="userSpaceOnUse" x1="286.1862" y1="132.2783" x2="336.8774" y2="182.9695">
				<stop  offset="0" style="stop-color:#B9438F"/>
				<stop  offset="0.9873" style="stop-color:#6769FF"/>
			</linearGradient>
			<polygon class="st34" points="262.2,157.2 317.9,113.8 360.9,157.2 			"/>
			<linearGradient id="SVGID_35_" gradientUnits="userSpaceOnUse" x1="207.1102" y1="42.2292" x2="244.4496" y2="79.5686">
				<stop  offset="0" style="stop-color:#B9438F"/>
				<stop  offset="0.9873" style="stop-color:#6769FF"/>
			</linearGradient>
			<polygon class="st35" points="189.8,60.5 230.5,28.8 261.8,60.5 			"/>
			
				<linearGradient id="SVGID_36_" gradientUnits="userSpaceOnUse" x1="144.0524" y1="176.0905" x2="184.0925" y2="216.1306" gradientTransform="matrix(0.4465 -0.8948 0.8948 0.4465 -75.8871 169.3027)">
				<stop  offset="0" style="stop-color:#B9438F"/>
				<stop  offset="0.9873" style="stop-color:#6769FF"/>
			</linearGradient>
			<polygon class="st36" points="153.6,139.6 146.9,94.8 191.3,80.3 			"/>
			<linearGradient id="SVGID_37_" gradientUnits="userSpaceOnUse" x1="280.9018" y1="219.7017" x2="329.8174" y2="268.6173">
				<stop  offset="0" style="stop-color:#B9438F"/>
				<stop  offset="0.9873" style="stop-color:#6769FF"/>
			</linearGradient>
			<polygon class="st37" points="253.5,248.1 311.9,203.8 357.6,239.1 			"/>
			<linearGradient id="SVGID_38_" gradientUnits="userSpaceOnUse" x1="288.0673" y1="303.6001" x2="323.2084" y2="338.7412">
				<stop  offset="0" style="stop-color:#B9438F"/>
				<stop  offset="0.9873" style="stop-color:#6769FF"/>
			</linearGradient>
			<polygon class="st38" points="301.1,359.5 290,302.7 329.6,301.8 			"/>
			<linearGradient id="SVGID_39_" gradientUnits="userSpaceOnUse" x1="196.9546" y1="220.6906" x2="212.7778" y2="236.5138">
				<stop  offset="0" style="stop-color:#B9438F"/>
				<stop  offset="0.9873" style="stop-color:#6769FF"/>
			</linearGradient>
			<polygon class="st39" points="203.9,214.9 198.3,239.1 221.2,227 			"/>
			
				<linearGradient id="SVGID_40_" gradientUnits="userSpaceOnUse" x1="90.2846" y1="365.8892" x2="106.1078" y2="381.7124" gradientTransform="matrix(0.3843 0.9232 -0.9232 0.3843 432.8566 173.0956)">
				<stop  offset="0" style="stop-color:#B9438F"/>
				<stop  offset="0.9873" style="stop-color:#6769FF"/>
			</linearGradient>
			<polygon class="st40" points="137.7,401.2 113.2,405.4 133.2,421.9 			"/>
			
				<linearGradient id="SVGID_41_" gradientUnits="userSpaceOnUse" x1="-157.2725" y1="325.7227" x2="-141.4493" y2="341.5459" gradientTransform="matrix(0.3843 0.9232 -0.9232 0.3843 432.8566 173.0956)">
				<stop  offset="0" style="stop-color:#B9438F"/>
				<stop  offset="0.9873" style="stop-color:#6769FF"/>
			</linearGradient>
			<polygon class="st41" points="79.7,157.2 55.2,161.4 75.2,177.9 			"/>
			<linearGradient id="SVGID_42_" gradientUnits="userSpaceOnUse" x1="174.5234" y1="388.2914" x2="220.4426" y2="434.2106">
				<stop  offset="0" style="stop-color:#B9438F"/>
				<stop  offset="0.9873" style="stop-color:#6769FF"/>
			</linearGradient>
			<polygon class="st42" points="173.5,437.7 200.8,363.2 239.8,413.8 			"/>
			
				<linearGradient id="SVGID_43_" gradientUnits="userSpaceOnUse" x1="42.9245" y1="260.5791" x2="102.3486" y2="320.0031" gradientTransform="matrix(-0.2394 -0.9709 0.9709 -0.2394 -161.0462 477.0881)">
				<stop  offset="0" style="stop-color:#B9438F"/>
				<stop  offset="0.9873" style="stop-color:#6769FF"/>
			</linearGradient>
			<polygon class="st43" points="143.7,365.4 39.7,346.7 99.7,286.6 			"/>
			<linearGradient id="SVGID_44_" gradientUnits="userSpaceOnUse" x1="165.5332" y1="281.9936" x2="311.1001" y2="427.5604">
				<stop  offset="0" style="stop-color:#B9438F"/>
				<stop  offset="0.9873" style="stop-color:#6769FF"/>
			</linearGradient>
			<polyline class="st44" points="321.3,417.2 273.3,355.8 266.5,425.6 221.2,293.7 181.5,266.1 			"/>
			<linearGradient id="SVGID_45_" gradientUnits="userSpaceOnUse" x1="620.3165" y1="335.1213" x2="702.8563" y2="417.6612">
				<stop  offset="0" style="stop-color:#B9438F"/>
				<stop  offset="0.9873" style="stop-color:#6769FF"/>
			</linearGradient>
			<polygon class="st45" points="551.3,404.8 767.9,344 641.2,478.6 			"/>
			<linearGradient id="SVGID_46_" gradientUnits="userSpaceOnUse" x1="660.9315" y1="437.1472" x2="728.2502" y2="504.4659">
				<stop  offset="0" style="stop-color:#B9438F"/>
				<stop  offset="0.9873" style="stop-color:#6769FF"/>
			</linearGradient>
			<polygon class="st46" points="735.6,496 689,411.1 679.8,510.3 			"/>
			<linearGradient id="SVGID_47_" gradientUnits="userSpaceOnUse" x1="611.3083" y1="507.4026" x2="647.3666" y2="543.4609">
				<stop  offset="0" style="stop-color:#B9438F"/>
				<stop  offset="0.9873" style="stop-color:#6769FF"/>
			</linearGradient>
			<polygon class="st47" points="679.8,510.3 611.1,570.9 641.2,478.6 			"/>
			<linearGradient id="SVGID_48_" gradientUnits="userSpaceOnUse" x1="630.4962" y1="431.0847" x2="695.0345" y2="495.623">
				<stop  offset="0" style="stop-color:#B9438F"/>
				<stop  offset="0.9873" style="stop-color:#6769FF"/>
			</linearGradient>
			<polygon class="st48" points="689,411.1 591.4,470.7 679.8,510.3 			"/>
			<linearGradient id="SVGID_49_" gradientUnits="userSpaceOnUse" x1="715.7666" y1="383.5785" x2="782.7314" y2="450.5432">
				<stop  offset="0" style="stop-color:#B9438F"/>
				<stop  offset="0.9873" style="stop-color:#6769FF"/>
			</linearGradient>
			<polygon class="st49" points="767.9,344 689,411.1 735.6,496 			"/>
			<linearGradient id="SVGID_50_" gradientUnits="userSpaceOnUse" x1="491.4889" y1="133.0305" x2="520.2163" y2="161.7579">
				<stop  offset="0" style="stop-color:#B9438F"/>
				<stop  offset="0.9873" style="stop-color:#6769FF"/>
			</linearGradient>
			<polygon class="st50" points="470.5,154.8 532.1,149.2 525.6,124.4 			"/>
			<linearGradient id="SVGID_51_" gradientUnits="userSpaceOnUse" x1="426.0989" y1="394.9951" x2="561.6115" y2="530.5076">
				<stop  offset="0" style="stop-color:#B9438F"/>
				<stop  offset="0.9873" style="stop-color:#6769FF"/>
			</linearGradient>
			<polygon class="st51" points="424.4,397.4 551.3,404.8 503.6,587.9 			"/>
			<linearGradient id="SVGID_52_" gradientUnits="userSpaceOnUse" x1="381.4302" y1="280.7143" x2="426.5982" y2="325.8823">
				<stop  offset="0" style="stop-color:#B9438F"/>
				<stop  offset="0.9873" style="stop-color:#6769FF"/>
			</linearGradient>
			<polygon class="st52" points="360.7,302 411.6,340.2 419.4,277 			"/>
			<linearGradient id="SVGID_53_" gradientUnits="userSpaceOnUse" x1="381.289" y1="280.7053" x2="441.5388" y2="340.955">
				<stop  offset="0" style="stop-color:#B9438F"/>
				<stop  offset="0.9873" style="stop-color:#6769FF"/>
			</linearGradient>
			<polygon class="st53" points="360.7,302 455.8,326 419.4,277 			"/>
			<linearGradient id="SVGID_54_" gradientUnits="userSpaceOnUse" x1="543.7534" y1="300.3869" x2="631.3051" y2="387.9387">
				<stop  offset="0" style="stop-color:#B9438F"/>
				<stop  offset="0.9873" style="stop-color:#6769FF"/>
			</linearGradient>
			<polygon class="st54" points="510.3,334.8 651.8,340.9 601.6,417.2 			"/>
			<linearGradient id="SVGID_55_" gradientUnits="userSpaceOnUse" x1="553.842" y1="401.3869" x2="607.6729" y2="455.2178">
				<stop  offset="0" style="stop-color:#B9438F"/>
				<stop  offset="0.9873" style="stop-color:#6769FF"/>
			</linearGradient>
			<polygon class="st55" points="591.4,470.7 601.6,417.2 551.3,404.8 			"/>
			<linearGradient id="SVGID_56_" gradientUnits="userSpaceOnUse" x1="608.9577" y1="409.4116" x2="650.1635" y2="450.6173">
				<stop  offset="0" style="stop-color:#B9438F"/>
				<stop  offset="0.9873" style="stop-color:#6769FF"/>
			</linearGradient>
			<polygon class="st56" points="689,411.1 601.6,417.2 591.4,470.7 			"/>
			<linearGradient id="SVGID_57_" gradientUnits="userSpaceOnUse" x1="619.9067" y1="372.3806" x2="674.1227" y2="426.5967">
				<stop  offset="0" style="stop-color:#B9438F"/>
				<stop  offset="0.9873" style="stop-color:#6769FF"/>
			</linearGradient>
			<polygon class="st57" points="651.8,340.9 689,411.1 601.6,417.2 			"/>
			<linearGradient id="SVGID_58_" gradientUnits="userSpaceOnUse" x1="568.1686" y1="112.4124" x2="627.2223" y2="171.4662">
				<stop  offset="0" style="stop-color:#B9438F"/>
				<stop  offset="0.9873" style="stop-color:#6769FF"/>
			</linearGradient>
			<polygon class="st58" points="532.1,149.2 599.2,199.1 648.1,120 			"/>
			<linearGradient id="SVGID_59_" gradientUnits="userSpaceOnUse" x1="629.1605" y1="168.5631" x2="727.6875" y2="267.0901">
				<stop  offset="0" style="stop-color:#B9438F"/>
				<stop  offset="0.9873" style="stop-color:#6769FF"/>
			</linearGradient>
			<polygon class="st59" points="705.8,161.6 599.2,199.1 685.4,308.6 			"/>
			<linearGradient id="SVGID_60_" gradientUnits="userSpaceOnUse" x1="564.9238" y1="203.3193" x2="607.0982" y2="245.4937">
				<stop  offset="0" style="stop-color:#B9438F"/>
				<stop  offset="0.9873" style="stop-color:#6769FF"/>
			</linearGradient>
			<polygon class="st60" points="547,221.8 599.2,199.1 587.3,264.6 			"/>
			<linearGradient id="SVGID_61_" gradientUnits="userSpaceOnUse" x1="389.2052" y1="432.0456" x2="471.5549" y2="514.3954">
				<stop  offset="0" style="stop-color:#B9438F"/>
				<stop  offset="0.9873" style="stop-color:#6769FF"/>
			</linearGradient>
			<polygon class="st61" points="424.4,397.4 378.4,491.1 483.7,501.5 			"/>
			<linearGradient id="SVGID_62_" gradientUnits="userSpaceOnUse" x1="369.1972" y1="499.9271" x2="427.6915" y2="558.4214">
				<stop  offset="0" style="stop-color:#B9438F"/>
				<stop  offset="0.9873" style="stop-color:#6769FF"/>
			</linearGradient>
			<polygon class="st62" points="321.3,564.9 378.4,491.1 483.7,501.5 			"/>
			<linearGradient id="SVGID_63_" gradientUnits="userSpaceOnUse" x1="509.8862" y1="445.8162" x2="563.3431" y2="499.2731">
				<stop  offset="0" style="stop-color:#B9438F"/>
				<stop  offset="0.9873" style="stop-color:#6769FF"/>
			</linearGradient>
			<polygon class="st63" points="591.4,470.7 483.7,501.5 551.3,404.8 			"/>
		</g>
		<g class="st4">
			<circle class="st2" cx="531.7" cy="149.2" r="3.1"/>
			<circle class="st2" cx="441.7" cy="206.6" r="3.7"/>
			<circle class="st2" cx="767.5" cy="345.6" r="5.4"/>
			<circle class="st2" cx="360.7" cy="302" r="3.6"/>
			<circle class="st2" cx="424.9" cy="397.3" r="4.7"/>
			<circle class="st2" cx="483.7" cy="501.5" r="4.7"/>
			<circle class="st2" cx="510.3" cy="334.8" r="2.4"/>
			<circle class="st2" cx="651.8" cy="340.9" r="2.4"/>
			<circle class="st2" cx="411.6" cy="340.2" r="2.4"/>
			<circle class="st2" cx="419.4" cy="277" r="2.4"/>
			<circle class="st64" cx="273.9" cy="357.1" r="2.4"/>
			<circle class="st64" cx="173.5" cy="438.3" r="2.4"/>
			<circle class="st64" cx="221.2" cy="294.8" r="2.4"/>
			<circle class="st64" cx="266.9" cy="425.8" r="2.4"/>
			<circle class="st2" cx="379.2" cy="206.6" r="2.4"/>
			<circle class="st2" cx="290" cy="303.9" r="2.4"/>
			<circle class="st64" cx="253.5" cy="248.1" r="2.4"/>
			<circle class="st64" cx="379.2" cy="152.2" r="2.4"/>
			<circle class="st64" cx="580.8" cy="65.2" r="2.4"/>
			<circle class="st64" cx="440.8" cy="28.8" r="2.4"/>
			<circle class="st64" cx="336.3" cy="54.2" r="2.4"/>
			<circle class="st2" cx="321.3" cy="564.9" r="2.4"/>
			<circle class="st2" cx="521.1" cy="290" r="2.4"/>
			<circle class="st2" cx="599.2" cy="199.1" r="2.4"/>
			<circle class="st2" cx="601.6" cy="417.2" r="2.4"/>
			<circle class="st2" cx="378.4" cy="491.1" r="2.4"/>
			<circle class="st2" cx="591.6" cy="470.7" r="2.4"/>
			<circle class="st2" cx="506" cy="587.9" r="2.4"/>
			<circle class="st2" cx="689" cy="411.1" r="2.4"/>
			<circle class="st2" cx="586.9" cy="265.3" r="4.7"/>
			<circle class="st2" cx="455.8" cy="326" r="4.7"/>
			<circle class="st2" cx="685.4" cy="308.6" r="4.7"/>
			<circle class="st2" cx="551.3" cy="404.8" r="4.7"/>
			<circle class="st2" cx="641.2" cy="480.1" r="4.7"/>
			<circle class="st2" cx="546.3" cy="222.1" r="4.7"/>
			<circle class="st2" cx="321.8" cy="417.4" r="3.6"/>
			<circle class="st2" cx="705.6" cy="161.3" r="3"/>
			<circle class="st2" cx="648.1" cy="120" r="3"/>
		</g>
	</g>
</g>
<g id="BACKGROUND_1">
</g>
<g id="DESIGNED_BY_FREEPIK">
</g>
</svg>
