<?xml version="1.0" encoding="iso-8859-1"?>
<!-- Generator: Adobe Illustrator 19.1.0, SVG Export Plug-In . SVG Version: 6.00 Build 0)  -->
<svg xmlns="http://www.w3.org/2000/svg" xmlns:xlink="http://www.w3.org/1999/xlink" version="1.1" id="Capa_1" x="0px" y="0px" viewBox="0 0 86.906 86.906" style="enable-background:new 0 0 86.906 86.906;" xml:space="preserve" width="512px" height="512px">
<g>
	<g>
		<path d="M81.751,28.863l-1.614-1.145c-1.614-1.145-3.231-2.292-4.861-3.415c-1.715-1.183-3.438-2.441-5.104-3.66    c-1.925-1.407-3.916-2.862-5.936-4.229c-0.271-0.183-0.549-0.392-0.838-0.607c-1.447-1.08-3.551-2.459-5.852-2.225    C54.425,13.888,52,17.054,52,19.703v6.986c0-0.001-0.086-0.002-0.272-0.002c-6.82,0-40.721,1.722-40.721,35.72    c0,0.976,0.768,1.805,1.729,1.968c0.111,0.02,0.255,0.028,0.365,0.028c0.838,0,1.621-0.53,1.905-1.344    c0.252-0.72,6.229-17.627,33.084-17.627c1.348,0,2.909,0.044,3.909,0.13v6.515c0,2.173,1.604,4.347,3.699,5.536    c0.729,0.414,1.634,0.624,2.443,0.624c1.989,0,3.643-1.235,4.921-2.228c0.343-0.266,0.698-0.522,1.007-0.72    c1.19-0.767,2.38-1.593,3.515-2.392c0.575-0.404,1.157-0.809,1.729-1.202c3.145-2.156,6.299-4.422,9.347-6.612l0.869-0.624    c0.396-0.283,0.799-0.562,1.201-0.842c0.336-0.232,0.671-0.465,0.94-0.657c2.332-1.524,5.236-3.421,5.236-7.071    C86.908,32.373,84.505,30.738,81.751,28.863z M79.422,39.655c-0.319,0.227-0.644,0.451-0.968,0.676    c-0.42,0.291-0.841,0.583-1.255,0.88l-0.869,0.625c-3.03,2.178-6.162,4.43-9.271,6.562c-0.587,0.403-1.173,0.816-1.76,1.229    c-1.102,0.775-2.24,1.577-3.36,2.297c-0.428,0.274-0.854,0.605-1.266,0.926c-0.754,0.585-1.786,1.387-2.405,1.387    c-0.076,0-0.435-0.012-0.594-0.103C56.862,53.673,56,52.788,56,52.076v-8.372c0-1.038-0.544-1.903-1.578-1.992    c-2.157-0.187-4.16-0.28-6.198-0.28c-17.713,0-27.312,6.871-32.297,12.629c1.854-8.38,6.738-14.622,14.529-18.616    c8.377-4.295,17.835-4.758,21.506-4.758c1.061,0,1.69-0.153,1.725-0.15c0.043,0.002,0.095-0.187,0.138-0.187H54.5    c1.104,0,1.5-0.515,1.5-1.619v-9.028c0-0.923,1.148-2.063,1.937-2.141c0.805-0.056,1.988,0.736,2.942,1.449    c0.342,0.255,0.734,0.501,1.053,0.716c1.959,1.326,3.951,2.76,5.848,4.146c1.688,1.234,3.45,2.511,5.211,3.724    c1.614,1.113,3.225,2.25,4.823,3.385l1.652,1.168c2.925,1.99,3.44,2.55,3.44,3.74C82.906,37.161,81.852,38.065,79.422,39.655z" fill="#FFFFFF"/>
		<path d="M61.682,73.35c5.027,0,8.318-3.455,8.318-8.541v-5.078c0-1.104-0.896-2-2-2s-2,0.896-2,2v5.078    c0,2.897-1.481,4.541-4.318,4.541H9.787C6.822,69.35,4,67.569,4,64.809V31.703c0-2.741,2.872-5.353,5.787-5.353H29.5    c1.104,0,2-0.896,2-2s-0.896-2-2-2H9.787C4.666,22.35,0,26.755,0,31.703v33.106c0,4.92,4.666,8.541,9.787,8.541H61.682z" fill="#FFFFFF"/>
	</g>
</g>
<g>
</g>
<g>
</g>
<g>
</g>
<g>
</g>
<g>
</g>
<g>
</g>
<g>
</g>
<g>
</g>
<g>
</g>
<g>
</g>
<g>
</g>
<g>
</g>
<g>
</g>
<g>
</g>
<g>
</g>
</svg>
